<?xml version="1.0" encoding="UTF-8"?><svg id="Ebene_1" xmlns="http://www.w3.org/2000/svg" viewBox="0 0 367.85 135.3"><defs><style>.cls-1{fill:#e74027;}.cls-2{fill:#293c5e;}</style></defs><path class="cls-2" d="m28.98,113c-2.29-1.97-3.43-4.46-3.43-7.49,0-2.77.71-5.06,2.13-6.87,1.42-1.81,3.26-3.24,5.51-4.3,2.26-1.06,5.25-2.18,8.99-3.34l11.7-55.21c1.29-6.19,3.56-10.47,6.82-12.86,3.25-2.38,6.85-3.58,10.78-3.58,3.03,0,5.69.98,7.98,2.95,2.29,1.97,3.43,4.46,3.43,7.49,0,1.48-.1,2.8-.29,3.96h-4.54c.13-1.42.19-2.29.19-2.61,0-1.03-.35-1.84-1.06-2.42-.71-.58-1.58-.87-2.61-.87-1.35,0-2.68.6-3.96,1.79-1.29,1.19-2.22,3.24-2.8,6.14l-1.64,7.64h7.06l-.68,3.87h-7.16l-11.12,52.21c-1.29,6.25-3.51,10.55-6.67,12.91-3.16,2.35-6.7,3.53-10.64,3.53-3.03,0-5.69-.98-7.98-2.95Zm11.26-13.2l1.26-5.61c-3.42,1.16-6.04,2.5-7.88,4.01-1.84,1.51-2.76,3.5-2.76,5.95,0,.77.39,1.5,1.16,2.18s1.68,1.02,2.71,1.02c2.58,0,4.42-2.51,5.51-7.54Z"/><path class="cls-2" d="m74.28,88.49c-2.77-2.45-4.16-6.32-4.16-11.6,0-4.38.9-9.25,2.71-14.6,1.8-5.35,4.7-9.97,8.7-13.88,4-3.9,9.02-5.85,15.08-5.85,8.25,0,12.38,5.16,12.38,15.47v.1c.19.06.55.1,1.06.1,2.13,0,4.58-.56,7.35-1.69,2.77-1.13,5.28-2.5,7.54-4.11l.87,2.61c-1.87,2-4.3,3.69-7.3,5.08-3,1.39-6.27,2.37-9.81,2.95-.52,5.87-1.84,10.99-3.96,15.37-2.13,4.38-4.87,7.77-8.22,10.15-3.35,2.39-6.99,3.58-10.93,3.58-4.77,0-8.54-1.22-11.31-3.67Zm19.82-7.69c1.55-1.77,2.9-4.19,4.06-7.25,1.16-3.06,2-6.46,2.51-10.2-1.74-.39-2.61-1.74-2.61-4.06,0-2.64,1-4.38,3-5.22-.13-2.13-.45-3.59-.97-4.4-.52-.81-1.42-1.21-2.71-1.21-2.13,0-4.19,1.55-6.19,4.64-2,3.09-3.61,6.8-4.83,11.12-1.23,4.32-1.84,8.12-1.84,11.41,0,3.09.35,5.17,1.06,6.24.71,1.06,2,1.6,3.87,1.6,1.55,0,3.09-.89,4.64-2.66Z"/><path class="cls-2" d="m116,89.46c-1.9-1.93-2.85-4.83-2.85-8.7,0-1.61.26-3.71.77-6.29l5.8-27.17h-3.19l.77-3.87h3.19l2.9-13.34,14.31-1.93-3.29,15.28h5.8l-.77,3.87h-5.8l-6.19,29.01c-.26.97-.39,2-.39,3.09,0,1.29.31,2.21.92,2.76.61.55,1.63.82,3.05.82,1.87,0,3.61-.79,5.22-2.37,1.61-1.58,2.77-3.63,3.48-6.14h4.06c-2.39,6.96-5.45,11.68-9.19,14.17-3.74,2.48-7.45,3.72-11.12,3.72-3.09,0-5.59-.97-7.49-2.9Z"/><path class="cls-2" d="m142.54,88.49c-2.77-2.45-4.16-6.32-4.16-11.6,0-4.45.87-9.33,2.61-14.65,1.74-5.32,4.58-9.93,8.51-13.83,3.93-3.9,8.96-5.85,15.08-5.85,7.61,0,11.7,4.35,12.28,13.05,1.42-.32,2.67-1.11,3.77-2.37,1.1-1.26,2.13-2.69,3.09-4.3h3.09c-1.74,3.48-3.29,6.2-4.64,8.17-1.35,1.97-3.13,3.56-5.32,4.79-.39,6.06-1.63,11.38-3.72,15.95-2.1,4.58-4.82,8.11-8.17,10.59-3.35,2.48-7.06,3.72-11.12,3.72-4.77,0-8.54-1.22-11.31-3.67Zm21.85-10.83c2.06-3.87,3.48-8.64,4.25-14.31-1.55-.58-2.32-2.03-2.32-4.35,0-2.51.9-4.19,2.71-5.03-.13-2.06-.47-3.5-1.02-4.3-.55-.81-1.44-1.21-2.66-1.21-2.13,0-4.16,1.53-6.09,4.59-1.93,3.06-3.5,6.77-4.69,11.12-1.19,4.35-1.79,8.17-1.79,11.46,0,3.09.35,5.17,1.06,6.24.71,1.06,2,1.6,3.87,1.6,2.38,0,4.61-1.93,6.67-5.8Z"/><path class="cls-1" d="m175.66,113c-2.22-1.97-3.34-4.59-3.34-7.88,0-2.71.77-4.93,2.32-6.67,1.55-1.74,3.45-3.13,5.7-4.16,2.26-1.03,5.16-2.13,8.7-3.29l10.73-50.86c1.74-7.99,4.64-13.46,8.7-16.39,4.06-2.93,8.7-4.4,13.92-4.4,4.83,0,8.93.81,12.28,2.42,3.35,1.61,5.03,4.51,5.03,8.7,0,2.71-.73,4.69-2.18,5.95-1.45,1.26-3.27,1.89-5.46,1.89-1.68,0-3.06-.4-4.16-1.21-1.1-.81-1.64-2.14-1.64-4.01,0-1.22.31-2.32.92-3.29.61-.97,1.4-1.45,2.37-1.45.45,0,.71.03.77.1-.06-1.29-.56-2.26-1.5-2.9-.94-.64-2.21-.97-3.82-.97-2.84,0-5.11,1.03-6.82,3.09-1.71,2.06-2.85,4.67-3.43,7.83l-1.64,7.93h7.74l-.77,3.87h-7.74l-11.02,52.21c-1.29,6.06-3.51,10.31-6.67,12.76-3.16,2.45-6.61,3.67-10.35,3.67-3.54,0-6.43-.98-8.65-2.95Zm9.19-7.49c1.06-1.23,1.85-3.13,2.37-5.7l1.16-5.61c-3.29,1.03-5.9,2.34-7.83,3.92-1.93,1.58-2.9,3.37-2.9,5.37,0,1.42.45,2.42,1.35,3,.9.58,1.77.87,2.61.87,1.1,0,2.18-.61,3.24-1.84Zm35.39-16.05c-1.9-1.93-2.85-4.83-2.85-8.7,0-1.61.26-3.71.77-6.29l6.57-31.04h13.92l-6.96,32.87c-.26.97-.39,2-.39,3.09,0,1.29.31,2.21.92,2.76.61.55,1.63.82,3.05.82,1.87,0,3.61-.79,5.22-2.37,1.61-1.58,2.77-3.63,3.48-6.14h4.06c-2.39,6.96-5.45,11.68-9.19,14.17-3.74,2.48-7.45,3.72-11.12,3.72-3.09,0-5.59-.97-7.49-2.9Z"/><path class="cls-1" d="m246.68,88.63c-2.64-2.48-3.96-6.36-3.96-11.65,0-4.45.87-9.35,2.61-14.7,1.74-5.35,4.58-9.97,8.51-13.88,3.93-3.9,8.93-5.85,14.99-5.85,7.09,0,10.64,3.09,10.64,9.28,0,3.61-1.03,6.93-3.09,9.96-2.06,3.03-4.8,5.46-8.22,7.3-3.42,1.84-7.06,2.89-10.93,3.14-.13,1.93-.19,3.22-.19,3.87,0,3.16.55,5.3,1.64,6.43,1.1,1.13,2.87,1.69,5.32,1.69,3.48,0,6.46-.81,8.94-2.42,2.48-1.61,5.2-4.06,8.17-7.35h3.29c-7.16,11.93-16.02,17.89-26.59,17.89-4.77,0-8.48-1.24-11.12-3.72Zm18.13-23.54c2.16-1.55,3.9-3.51,5.22-5.9,1.32-2.38,1.98-4.9,1.98-7.54s-.81-3.96-2.42-3.96c-2.32,0-4.59,2.03-6.82,6.09-2.22,4.06-3.82,8.67-4.79,13.83,2.38-.13,4.66-.97,6.82-2.51Z"/><path class="cls-1" d="m283.18,89.46c-1.9-1.93-2.85-4.83-2.85-8.7,0-1.61.26-3.71.77-6.29l5.8-27.17h-3.19l.77-3.87h3.19l2.9-13.34,14.31-1.93-3.29,15.28h5.8l-.77,3.87h-5.8l-6.19,29.01c-.26.97-.39,2-.39,3.09,0,1.29.31,2.21.92,2.76.61.55,1.63.82,3.05.82,1.87,0,3.61-.79,5.22-2.37,1.61-1.58,2.77-3.63,3.48-6.14h4.06c-2.39,6.96-5.45,11.68-9.19,14.17-3.74,2.48-7.45,3.72-11.12,3.72-3.09,0-5.59-.97-7.49-2.9Z"/><path class="cls-1" d="m309.53,88.63c-2.64-2.48-3.96-6.36-3.96-11.65,0-4.45.87-9.35,2.61-14.7,1.74-5.35,4.58-9.97,8.51-13.88,3.93-3.9,8.93-5.85,14.99-5.85,7.09,0,10.64,3.09,10.64,9.28,0,3.61-1.03,6.93-3.09,9.96-2.06,3.03-4.8,5.46-8.22,7.3-3.42,1.84-7.06,2.89-10.93,3.14-.13,1.42-.19,2.39-.19,2.9,0,5.35,2,8.03,5.99,8.03,1.8,0,3.74-.48,5.8-1.45,2.06-.97,3.93-2.19,5.61-3.67-1.74,9.54-7.32,14.31-16.73,14.31-4.71,0-8.38-1.24-11.02-3.72Zm18.13-23.45c2.16-1.55,3.9-3.53,5.22-5.95,1.32-2.42,1.98-4.95,1.98-7.59s-.81-3.96-2.42-3.96c-2.26,0-4.5,2.05-6.72,6.14-2.22,4.09-3.88,8.69-4.98,13.78,2.45-.06,4.75-.87,6.91-2.42Z"/></svg>